<?xml version="1.0" standalone="no"?>
<!DOCTYPE svg PUBLIC "-//W3C//DTD SVG 20010904//EN"
 "http://www.w3.org/TR/2001/REC-SVG-20010904/DTD/svg10.dtd">
<svg version="1.0" xmlns="http://www.w3.org/2000/svg"
 width="320.000000pt" height="320.000000pt" viewBox="0 0 320.000000 320.000000"
 preserveAspectRatio="xMidYMid meet">
<metadata>
Created by potrace 1.14, written by Peter Selinger 2001-2017
</metadata>
<g transform="translate(0.000000,320.000000) scale(0.100000,-0.100000)"
fill="#000000" stroke="none">
<path d="M0 1600 l0 -1600 1600 0 1600 0 0 1600 0 1600 -1600 0 -1600 0 0
-1600z m231 376 c-9 -11 0 -40 47 -138 l58 -123 47 118 c50 125 54 142 35 150
-7 3 5 6 26 6 35 1 38 -1 23 -12 -10 -7 -46 -84 -81 -172 l-63 -159 -21 39
c-11 22 -43 92 -72 155 -29 63 -59 123 -68 133 -14 16 -12 17 33 17 40 0 46
-2 36 -14z m597 -72 c6 -2 12 -15 12 -30 l0 -27 -21 27 c-36 46 -105 27 -92
-25 3 -11 30 -33 60 -50 79 -45 90 -92 31 -133 -27 -19 -88 -21 -110 -3 -9 6
-18 25 -21 40 l-5 29 30 -36 c32 -39 75 -48 98 -21 22 27 3 63 -55 100 -61 39
-70 52 -61 91 11 42 68 59 134 38z m1512 -24 l0 -35 -23 28 c-16 21 -30 28
-47 25 -25 -3 -25 -3 -25 -123 l0 -120 -37 0 c-33 0 -35 2 -22 16 11 13 14 40
12 120 l-3 104 -27 3 c-17 2 -34 -4 -47 -17 l-21 -21 0 28 0 27 120 0 120 0 0
-35z m-1722 23 c-10 -2 -18 -14 -19 -26 -1 -60 3 -200 7 -210 3 -8 -10 -12
-36 -12 -36 -1 -38 1 -25 15 11 12 15 43 15 119 0 96 -1 102 -22 111 -17 7 -8
9 37 8 33 0 52 -2 43 -5z m370 -4 c-13 -7 -18 -23 -18 -59 l0 -50 75 0 75 0 0
50 c0 36 -5 52 -17 59 -14 8 -5 10 36 11 48 0 52 -2 37 -13 -16 -11 -17 -27
-14 -128 l3 -115 -25 4 c-24 3 -25 6 -22 63 l4 59 -77 0 -77 0 4 -59 c4 -57 3
-59 -21 -63 l-26 -4 3 122 c3 112 2 123 -15 127 -10 3 7 5 37 6 42 0 51 -2 38
-10z m442 -20 l0 -32 -21 27 c-17 22 -28 27 -58 24 l-36 -3 -3 -52 -3 -53 51
0 c28 0 49 -4 46 -9 -3 -5 -26 -6 -51 -3 l-45 5 0 -50 c0 -27 5 -54 12 -61 23
-23 68 -14 101 21 18 19 28 25 24 14 -4 -10 -7 -27 -7 -38 0 -19 -6 -20 -95
-17 -61 2 -91 6 -85 12 6 6 10 61 10 122 0 99 -2 113 -17 117 -10 3 26 5 80 6
l97 1 0 -31z m195 -61 c43 -51 81 -94 85 -96 5 -2 8 31 8 74 0 61 -4 80 -19
95 -19 19 -18 19 23 19 36 0 39 -2 25 -12 -13 -11 -16 -35 -19 -126 -1 -63 -5
-115 -8 -117 -3 -1 -43 44 -90 101 -47 56 -88 103 -92 103 -5 1 -8 -39 -8 -88
0 -77 3 -92 19 -103 17 -12 15 -13 -20 -13 -34 0 -37 1 -23 16 10 11 14 42 14
114 0 81 -3 100 -17 111 -16 12 -15 13 14 14 27 0 41 -11 108 -92z m278 82
c-72 -29 -82 -168 -16 -220 29 -22 92 -27 111 -8 21 21 15 68 -10 78 -19 7
-14 9 26 9 42 1 47 -1 36 -14 -7 -8 -10 -29 -8 -46 6 -38 -17 -49 -96 -49 -87
0 -146 52 -146 130 0 19 6 46 13 60 14 28 72 70 96 69 11 0 9 -3 -6 -9z m125
-2 c7 -7 12 -23 12 -36 l0 -25 -21 27 c-12 15 -31 32 -43 36 -18 8 -17 9 10 9
16 1 35 -4 42 -11z m577 -23 c30 -31 35 -42 35 -83 0 -155 -209 -198 -260 -54
-13 37 -13 47 0 84 21 58 66 88 136 88 48 0 57 -4 89 -35z m220 -62 l80 -98 3
85 c2 71 0 87 -14 97 -15 11 -12 13 25 13 43 0 43 0 22 -17 -19 -16 -21 -30
-23 -132 l-3 -114 -90 108 -90 107 -3 -92 c-2 -74 0 -94 13 -104 13 -9 9 -11
-20 -11 -40 0 -41 1 -20 21 11 12 15 39 15 109 0 86 -2 95 -22 109 -22 16 -22
16 13 16 32 0 41 -8 114 -97z m-2645 -333 c0 -13 -7 -20 -20 -20 -13 0 -20 7
-20 20 0 13 7 20 20 20 13 0 20 -7 20 -20z m90 0 c0 -13 -7 -20 -20 -20 -13 0
-20 7 -20 20 0 13 7 20 20 20 13 0 20 -7 20 -20z m90 0 c0 -13 -7 -20 -20 -20
-13 0 -20 7 -20 20 0 13 7 20 20 20 13 0 20 -7 20 -20z m90 0 c0 -13 -7 -20
-20 -20 -13 0 -20 7 -20 20 0 13 7 20 20 20 13 0 20 -7 20 -20z m90 0 c0 -13
-7 -20 -20 -20 -13 0 -20 7 -20 20 0 13 7 20 20 20 13 0 20 -7 20 -20z m90 0
c0 -13 -7 -20 -20 -20 -13 0 -20 7 -20 20 0 13 7 20 20 20 13 0 20 -7 20 -20z
m90 0 c0 -13 -7 -20 -20 -20 -13 0 -20 7 -20 20 0 13 7 20 20 20 13 0 20 -7
20 -20z m90 0 c0 -13 -7 -20 -20 -20 -13 0 -20 7 -20 20 0 13 7 20 20 20 13 0
20 -7 20 -20z m90 0 c0 -13 -7 -20 -20 -20 -13 0 -20 7 -20 20 0 13 7 20 20
20 13 0 20 -7 20 -20z m90 0 c0 -13 -7 -20 -20 -20 -13 0 -20 7 -20 20 0 13 7
20 20 20 13 0 20 -7 20 -20z m90 0 c0 -13 -7 -20 -20 -20 -13 0 -20 7 -20 20
0 13 7 20 20 20 13 0 20 -7 20 -20z m90 0 c0 -23 -25 -27 -33 -6 -7 16 1 26
20 26 7 0 13 -9 13 -20z m93 14 c9 -10 -4 -34 -19 -34 -8 0 -14 9 -14 20 0 19
19 27 33 14z m95 -17 c2 -12 -3 -17 -17 -17 -15 0 -21 6 -21 21 0 25 33 22 38
-4z m92 3 c0 -13 -7 -20 -20 -20 -13 0 -20 7 -20 20 0 13 7 20 20 20 13 0 20
-7 20 -20z m90 0 c0 -13 -7 -20 -20 -20 -13 0 -20 7 -20 20 0 13 7 20 20 20
13 0 20 -7 20 -20z m90 0 c0 -13 -7 -20 -20 -20 -13 0 -20 7 -20 20 0 13 7 20
20 20 13 0 20 -7 20 -20z m90 0 c0 -13 -7 -20 -20 -20 -13 0 -20 7 -20 20 0
13 7 20 20 20 13 0 20 -7 20 -20z m90 0 c0 -13 -7 -20 -20 -20 -13 0 -20 7
-20 20 0 13 7 20 20 20 13 0 20 -7 20 -20z m90 0 c0 -13 -7 -20 -20 -20 -13 0
-20 7 -20 20 0 13 7 20 20 20 13 0 20 -7 20 -20z m90 0 c0 -13 -7 -20 -20 -20
-13 0 -20 7 -20 20 0 13 7 20 20 20 13 0 20 -7 20 -20z m90 0 c0 -13 -7 -20
-20 -20 -13 0 -20 7 -20 20 0 13 7 20 20 20 13 0 20 -7 20 -20z m90 0 c0 -13
-7 -20 -20 -20 -13 0 -20 7 -20 20 0 13 7 20 20 20 13 0 20 -7 20 -20z m90 0
c0 -13 -7 -20 -20 -20 -13 0 -20 7 -20 20 0 13 7 20 20 20 13 0 20 -7 20 -20z
m93 0 c4 -16 0 -20 -19 -20 -13 0 -24 6 -24 13 0 32 35 37 43 7z m97 0 c0 -13
-7 -20 -20 -20 -13 0 -20 7 -20 20 0 13 7 20 20 20 13 0 20 -7 20 -20z m90 0
c0 -13 -7 -20 -20 -20 -13 0 -20 7 -20 20 0 13 7 20 20 20 13 0 20 -7 20 -20z
m90 0 c0 -13 -7 -20 -20 -20 -13 0 -20 7 -20 20 0 13 7 20 20 20 13 0 20 -7
20 -20z m90 0 c0 -13 -7 -20 -20 -20 -13 0 -20 7 -20 20 0 13 7 20 20 20 13 0
20 -7 20 -20z m90 0 c0 -13 -7 -20 -20 -20 -13 0 -20 7 -20 20 0 13 7 20 20
20 13 0 20 -7 20 -20z m90 0 c0 -13 -7 -20 -20 -20 -13 0 -20 7 -20 20 0 13 7
20 20 20 13 0 20 -7 20 -20z m70 0 c0 -11 -4 -20 -10 -20 -5 0 -10 9 -10 20 0
11 5 20 10 20 6 0 10 -9 10 -20z m-1904 -98 c6 -4 14 -16 18 -27 7 -19 6 -18
-16 2 -13 11 -32 23 -43 26 -16 4 -16 5 5 6 14 0 30 -3 36 -7z m625 -2 c10 -6
19 -18 19 -28 -1 -16 -1 -16 -14 0 -7 10 -24 22 -37 27 -18 7 -20 10 -6 10 10
1 27 -4 38 -9z m-110 -26 c-35 -44 -25 -108 23 -146 11 -10 16 -18 9 -18 -22
0 -70 50 -77 81 -7 34 13 82 41 98 26 15 27 14 4 -15z m-631 -9 c-21 -26 -7
-105 25 -132 14 -13 21 -23 15 -23 -25 0 -80 67 -80 98 0 28 37 89 48 78 2 -3
-1 -12 -8 -21z m273 -72 c17 -38 33 -71 35 -75 2 -5 -6 -8 -18 -8 -12 0 -19 4
-15 9 9 15 -17 61 -34 61 -13 0 -13 2 -3 9 12 7 12 11 -1 22 -12 12 -13 49 0
49 2 0 19 -30 36 -67z m112 -10 c0 -58 -3 -73 -15 -73 -12 0 -15 15 -15 74 0
60 3 74 15 73 12 -1 15 -16 15 -74z m49 71 c18 -7 22 -39 6 -49 -17 -11 -11
-32 19 -64 24 -25 26 -31 11 -31 -9 0 -29 18 -43 39 -21 32 -23 40 -12 45 18
7 20 37 3 54 -13 13 -8 15 16 6z m571 -69 c0 -60 -3 -75 -15 -75 -12 0 -15 15
-15 75 0 61 3 75 15 75 13 0 16 -14 15 -75z m65 40 c0 -13 -4 -27 -10 -30 -15
-10 -12 -18 19 -53 19 -20 25 -32 16 -32 -8 0 -26 16 -41 35 -21 29 -24 38
-14 50 7 8 10 25 6 40 -5 19 -3 23 9 19 8 -4 15 -17 15 -29z m102 0 c-4 -33
-2 -35 24 -36 l29 -2 -29 -4 c-25 -4 -28 -8 -24 -39 3 -26 0 -34 -12 -34 -12
0 -15 14 -15 75 0 61 3 75 15 75 12 0 15 -8 12 -35z m68 19 c0 -8 -4 -12 -10
-9 -5 3 -10 10 -10 16 0 5 5 9 10 9 6 0 10 -7 10 -16z m-339 -64 c29 -56 33
-70 20 -70 -10 0 -25 22 -40 55 -13 30 -27 52 -32 49 -11 -6 -11 -1 -3 20 10
26 17 19 55 -54z m-696 -20 c-9 -17 -13 -35 -10 -40 3 -6 -1 -10 -9 -10 -12 0
-11 9 7 49 12 27 23 45 25 41 2 -5 -4 -23 -13 -40z m630 14 c-8 -9 -15 -26
-15 -40 0 -14 -6 -24 -14 -24 -10 0 -9 10 7 45 11 24 24 42 29 39 4 -3 1 -12
-7 -20z m-705 -49 c-7 -8 -18 -15 -26 -15 -9 0 -5 8 9 23 23 23 37 17 17 -8z
m619 -6 c-27 -17 -41 -9 -18 10 14 11 26 15 28 9 2 -6 -3 -14 -10 -19z m498 6
c-4 -8 -13 -15 -22 -15 -13 0 -12 3 3 18 19 21 27 20 19 -3z"/>
<path d="M2440 1875 c-18 -19 -23 -36 -23 -78 0 -83 38 -136 99 -137 89 0 115
166 35 227 -28 22 -85 16 -111 -12z"/>
</g>
</svg>
